<svg xmlns="http://www.w3.org/2000/svg" xmlns:xlink="http://www.w3.org/1999/xlink" width="1192" zoomAndPan="magnify" viewBox="0 0 894 428.250001" height="571" preserveAspectRatio="xMidYMid meet" version="1.0"><defs><g/><clipPath id="b55decfb7a"><path d="M 283 376 L 611 376 L 611 419.027344 L 283 419.027344 Z M 283 376 " clip-rule="nonzero"/></clipPath><clipPath id="ec0e47fac2"><rect x="0" width="328" y="0" height="44"/></clipPath><clipPath id="f34e297c5a"><rect x="0" width="624" y="0" height="138"/></clipPath><clipPath id="6f5466a3ac"><path d="M 310.3125 0 L 576.992188 0 L 576.992188 189.039062 L 310.3125 189.039062 Z M 310.3125 0 " clip-rule="nonzero"/></clipPath><clipPath id="fe2e054aa1"><path d="M 278 94.394531 L 605 94.394531 L 605 216 L 278 216 Z M 278 94.394531 " clip-rule="nonzero"/></clipPath><clipPath id="83496ee13c"><path d="M 482.503906 39.390625 L 523.011719 39.390625 L 523.011719 79.898438 L 482.503906 79.898438 Z M 482.503906 39.390625 " clip-rule="nonzero"/></clipPath><clipPath id="9c92f8d8c9"><rect x="0" width="884" y="0" height="420"/></clipPath></defs><g transform="matrix(1, 0, 0, 1, 3, -0.000000000000033146)"><g clip-path="url(#9c92f8d8c9)"><g clip-path="url(#b55decfb7a)"><g transform="matrix(1, 0, 0, 1, 283, 376)"><g clip-path="url(#ec0e47fac2)"><g fill="#d8b9eb" fill-opacity="1"><g transform="translate(0.444918, 33.360153)"><g><path d="M 13.984375 -24.828125 C 15.796875 -24.828125 17.457031 -24.503906 18.96875 -23.859375 C 20.476562 -23.222656 21.785156 -22.335938 22.890625 -21.203125 C 23.992188 -20.066406 24.847656 -18.726562 25.453125 -17.1875 C 26.054688 -15.65625 26.359375 -13.992188 26.359375 -12.203125 C 26.359375 -10.410156 26.054688 -8.75 25.453125 -7.21875 C 24.847656 -5.6875 23.992188 -4.34375 22.890625 -3.1875 C 21.785156 -2.039062 20.476562 -1.144531 18.96875 -0.5 C 17.457031 0.132812 15.796875 0.453125 13.984375 0.453125 C 12.171875 0.453125 10.507812 0.132812 9 -0.5 C 7.488281 -1.144531 6.175781 -2.039062 5.0625 -3.1875 C 3.945312 -4.34375 3.082031 -5.6875 2.46875 -7.21875 C 1.863281 -8.75 1.5625 -10.410156 1.5625 -12.203125 C 1.5625 -13.992188 1.863281 -15.65625 2.46875 -17.1875 C 3.082031 -18.726562 3.945312 -20.066406 5.0625 -21.203125 C 6.175781 -22.335938 7.488281 -23.222656 9 -23.859375 C 10.507812 -24.503906 12.171875 -24.828125 13.984375 -24.828125 Z M 13.984375 -2.828125 C 15.398438 -2.828125 16.660156 -3.085938 17.765625 -3.609375 C 18.867188 -4.128906 19.796875 -4.835938 20.546875 -5.734375 C 21.304688 -6.628906 21.878906 -7.632812 22.265625 -8.75 C 22.648438 -9.863281 22.84375 -11.015625 22.84375 -12.203125 C 22.84375 -13.390625 22.648438 -14.539062 22.265625 -15.65625 C 21.878906 -16.769531 21.304688 -17.773438 20.546875 -18.671875 C 19.796875 -19.566406 18.867188 -20.273438 17.765625 -20.796875 C 16.660156 -21.328125 15.398438 -21.59375 13.984375 -21.59375 C 12.566406 -21.59375 11.304688 -21.328125 10.203125 -20.796875 C 9.097656 -20.273438 8.164062 -19.566406 7.40625 -18.671875 C 6.65625 -17.773438 6.085938 -16.769531 5.703125 -15.65625 C 5.316406 -14.539062 5.125 -13.390625 5.125 -12.203125 C 5.125 -11.015625 5.316406 -9.863281 5.703125 -8.75 C 6.085938 -7.632812 6.65625 -6.628906 7.40625 -5.734375 C 8.164062 -4.835938 9.097656 -4.128906 10.203125 -3.609375 C 11.304688 -3.085938 12.566406 -2.828125 13.984375 -2.828125 Z M 13.984375 -2.828125 "/></g></g></g><g fill="#d8b9eb" fill-opacity="1"><g transform="translate(34.960029, 33.360153)"><g><path d="M 9.34375 -24.40625 C 12.113281 -24.40625 14.445312 -23.867188 16.34375 -22.796875 C 18.238281 -21.734375 19.664062 -20.273438 20.625 -18.421875 C 21.59375 -16.578125 22.078125 -14.503906 22.078125 -12.203125 C 22.078125 -9.898438 21.59375 -7.832031 20.625 -6 C 19.664062 -4.164062 18.238281 -2.707031 16.34375 -1.625 C 14.445312 -0.539062 12.113281 0 9.34375 0 L 3.390625 0 C 3.128906 0 2.90625 -0.09375 2.71875 -0.28125 C 2.53125 -0.46875 2.4375 -0.6875 2.4375 -0.9375 L 2.4375 -23.46875 C 2.4375 -23.726562 2.53125 -23.945312 2.71875 -24.125 C 2.90625 -24.3125 3.128906 -24.40625 3.390625 -24.40625 Z M 9.34375 -3.171875 C 11.269531 -3.171875 12.921875 -3.539062 14.296875 -4.28125 C 15.671875 -5.03125 16.722656 -6.082031 17.453125 -7.4375 C 18.179688 -8.800781 18.546875 -10.390625 18.546875 -12.203125 C 18.546875 -14.046875 18.179688 -15.640625 17.453125 -16.984375 C 16.722656 -18.328125 15.671875 -19.367188 14.296875 -20.109375 C 12.921875 -20.859375 11.269531 -21.234375 9.34375 -21.234375 L 5.921875 -21.234375 L 5.921875 -3.171875 Z M 9.34375 -3.171875 "/></g></g></g><g fill="#d8b9eb" fill-opacity="1"><g transform="translate(65.1874, 33.360153)"><g><path d="M 13.984375 -24.828125 C 15.796875 -24.828125 17.457031 -24.503906 18.96875 -23.859375 C 20.476562 -23.222656 21.785156 -22.335938 22.890625 -21.203125 C 23.992188 -20.066406 24.847656 -18.726562 25.453125 -17.1875 C 26.054688 -15.65625 26.359375 -13.992188 26.359375 -12.203125 C 26.359375 -10.410156 26.054688 -8.75 25.453125 -7.21875 C 24.847656 -5.6875 23.992188 -4.34375 22.890625 -3.1875 C 21.785156 -2.039062 20.476562 -1.144531 18.96875 -0.5 C 17.457031 0.132812 15.796875 0.453125 13.984375 0.453125 C 12.171875 0.453125 10.507812 0.132812 9 -0.5 C 7.488281 -1.144531 6.175781 -2.039062 5.0625 -3.1875 C 3.945312 -4.34375 3.082031 -5.6875 2.46875 -7.21875 C 1.863281 -8.75 1.5625 -10.410156 1.5625 -12.203125 C 1.5625 -13.992188 1.863281 -15.65625 2.46875 -17.1875 C 3.082031 -18.726562 3.945312 -20.066406 5.0625 -21.203125 C 6.175781 -22.335938 7.488281 -23.222656 9 -23.859375 C 10.507812 -24.503906 12.171875 -24.828125 13.984375 -24.828125 Z M 13.984375 -2.828125 C 15.398438 -2.828125 16.660156 -3.085938 17.765625 -3.609375 C 18.867188 -4.128906 19.796875 -4.835938 20.546875 -5.734375 C 21.304688 -6.628906 21.878906 -7.632812 22.265625 -8.75 C 22.648438 -9.863281 22.84375 -11.015625 22.84375 -12.203125 C 22.84375 -13.390625 22.648438 -14.539062 22.265625 -15.65625 C 21.878906 -16.769531 21.304688 -17.773438 20.546875 -18.671875 C 19.796875 -19.566406 18.867188 -20.273438 17.765625 -20.796875 C 16.660156 -21.328125 15.398438 -21.59375 13.984375 -21.59375 C 12.566406 -21.59375 11.304688 -21.328125 10.203125 -20.796875 C 9.097656 -20.273438 8.164062 -19.566406 7.40625 -18.671875 C 6.65625 -17.773438 6.085938 -16.769531 5.703125 -15.65625 C 5.316406 -14.539062 5.125 -13.390625 5.125 -12.203125 C 5.125 -11.015625 5.316406 -9.863281 5.703125 -8.75 C 6.085938 -7.632812 6.65625 -6.628906 7.40625 -5.734375 C 8.164062 -4.835938 9.097656 -4.128906 10.203125 -3.609375 C 11.304688 -3.085938 12.566406 -2.828125 13.984375 -2.828125 Z M 13.984375 -2.828125 "/></g></g></g><g fill="#d8b9eb" fill-opacity="1"><g transform="translate(99.702511, 33.360153)"><g><path d="M 18.140625 -23.46875 C 18.140625 -23.726562 18.226562 -23.945312 18.40625 -24.125 C 18.59375 -24.3125 18.816406 -24.40625 19.078125 -24.40625 L 20.71875 -24.40625 C 20.96875 -24.40625 21.179688 -24.3125 21.359375 -24.125 C 21.535156 -23.945312 21.625 -23.726562 21.625 -23.46875 L 21.625 -0.9375 C 21.625 -0.6875 21.535156 -0.46875 21.359375 -0.28125 C 21.179688 -0.09375 20.96875 0 20.71875 0 L 19.390625 0 C 18.859375 0 18.441406 -0.21875 18.140625 -0.65625 L 5.921875 -18 L 5.921875 -0.9375 C 5.921875 -0.6875 5.832031 -0.46875 5.65625 -0.28125 C 5.488281 -0.09375 5.273438 0 5.015625 0 L 3.390625 0 C 3.128906 0 2.90625 -0.09375 2.71875 -0.28125 C 2.53125 -0.46875 2.4375 -0.6875 2.4375 -0.9375 L 2.4375 -23.46875 C 2.4375 -23.726562 2.53125 -23.945312 2.71875 -24.125 C 2.90625 -24.3125 3.128906 -24.40625 3.390625 -24.40625 L 4.671875 -24.40625 C 5.203125 -24.40625 5.632812 -24.1875 5.96875 -23.75 L 18.140625 -6.453125 Z M 18.140625 -23.46875 "/></g></g></g><g fill="#d8b9eb" fill-opacity="1"><g transform="translate(130.348193, 33.360153)"><g><path d="M 16.28125 -24.40625 C 16.539062 -24.40625 16.765625 -24.3125 16.953125 -24.125 C 17.140625 -23.945312 17.234375 -23.726562 17.234375 -23.46875 L 17.234375 -22.1875 C 17.234375 -21.925781 17.140625 -21.703125 16.953125 -21.515625 C 16.765625 -21.328125 16.539062 -21.234375 16.28125 -21.234375 L 11.0625 -21.234375 L 11.0625 -0.9375 C 11.0625 -0.6875 10.96875 -0.46875 10.78125 -0.28125 C 10.59375 -0.09375 10.367188 0 10.109375 0 L 8.515625 0 C 8.253906 0 8.03125 -0.09375 7.84375 -0.28125 C 7.65625 -0.46875 7.5625 -0.6875 7.5625 -0.9375 L 7.5625 -21.234375 L 2.34375 -21.234375 C 2.082031 -21.234375 1.859375 -21.328125 1.671875 -21.515625 C 1.484375 -21.703125 1.390625 -21.925781 1.390625 -22.1875 L 1.390625 -23.46875 C 1.390625 -23.726562 1.484375 -23.945312 1.671875 -24.125 C 1.859375 -24.3125 2.082031 -24.40625 2.34375 -24.40625 Z M 16.28125 -24.40625 "/></g></g></g><g fill="#d8b9eb" fill-opacity="1"><g transform="translate(155.555749, 33.360153)"><g><path d="M 13.984375 -24.828125 C 15.796875 -24.828125 17.457031 -24.503906 18.96875 -23.859375 C 20.476562 -23.222656 21.785156 -22.335938 22.890625 -21.203125 C 23.992188 -20.066406 24.847656 -18.726562 25.453125 -17.1875 C 26.054688 -15.65625 26.359375 -13.992188 26.359375 -12.203125 C 26.359375 -10.410156 26.054688 -8.75 25.453125 -7.21875 C 24.847656 -5.6875 23.992188 -4.34375 22.890625 -3.1875 C 21.785156 -2.039062 20.476562 -1.144531 18.96875 -0.5 C 17.457031 0.132812 15.796875 0.453125 13.984375 0.453125 C 12.171875 0.453125 10.507812 0.132812 9 -0.5 C 7.488281 -1.144531 6.175781 -2.039062 5.0625 -3.1875 C 3.945312 -4.34375 3.082031 -5.6875 2.46875 -7.21875 C 1.863281 -8.75 1.5625 -10.410156 1.5625 -12.203125 C 1.5625 -13.992188 1.863281 -15.65625 2.46875 -17.1875 C 3.082031 -18.726562 3.945312 -20.066406 5.0625 -21.203125 C 6.175781 -22.335938 7.488281 -23.222656 9 -23.859375 C 10.507812 -24.503906 12.171875 -24.828125 13.984375 -24.828125 Z M 13.984375 -2.828125 C 15.398438 -2.828125 16.660156 -3.085938 17.765625 -3.609375 C 18.867188 -4.128906 19.796875 -4.835938 20.546875 -5.734375 C 21.304688 -6.628906 21.878906 -7.632812 22.265625 -8.75 C 22.648438 -9.863281 22.84375 -11.015625 22.84375 -12.203125 C 22.84375 -13.390625 22.648438 -14.539062 22.265625 -15.65625 C 21.878906 -16.769531 21.304688 -17.773438 20.546875 -18.671875 C 19.796875 -19.566406 18.867188 -20.273438 17.765625 -20.796875 C 16.660156 -21.328125 15.398438 -21.59375 13.984375 -21.59375 C 12.566406 -21.59375 11.304688 -21.328125 10.203125 -20.796875 C 9.097656 -20.273438 8.164062 -19.566406 7.40625 -18.671875 C 6.65625 -17.773438 6.085938 -16.769531 5.703125 -15.65625 C 5.316406 -14.539062 5.125 -13.390625 5.125 -12.203125 C 5.125 -11.015625 5.316406 -9.863281 5.703125 -8.75 C 6.085938 -7.632812 6.65625 -6.628906 7.40625 -5.734375 C 8.164062 -4.835938 9.097656 -4.128906 10.203125 -3.609375 C 11.304688 -3.085938 12.566406 -2.828125 13.984375 -2.828125 Z M 13.984375 -2.828125 "/></g></g></g><g fill="#d8b9eb" fill-opacity="1"><g transform="translate(190.07086, 33.360153)"><g><path d="M 5.921875 -3.171875 L 15.03125 -3.171875 C 15.289062 -3.171875 15.507812 -3.082031 15.6875 -2.90625 C 15.875 -2.738281 15.96875 -2.523438 15.96875 -2.265625 L 15.96875 -0.9375 C 15.96875 -0.6875 15.875 -0.46875 15.6875 -0.28125 C 15.507812 -0.09375 15.289062 0 15.03125 0 L 3.390625 0 C 3.128906 0 2.90625 -0.09375 2.71875 -0.28125 C 2.53125 -0.46875 2.4375 -0.6875 2.4375 -0.9375 L 2.4375 -23.46875 C 2.4375 -23.726562 2.53125 -23.945312 2.71875 -24.125 C 2.90625 -24.3125 3.128906 -24.40625 3.390625 -24.40625 L 4.984375 -24.40625 C 5.242188 -24.40625 5.460938 -24.3125 5.640625 -24.125 C 5.828125 -23.945312 5.921875 -23.726562 5.921875 -23.46875 Z M 5.921875 -3.171875 "/></g></g></g><g fill="#d8b9eb" fill-opacity="1"><g transform="translate(214.023462, 33.360153)"><g><path d="M 13.984375 -24.828125 C 15.796875 -24.828125 17.457031 -24.503906 18.96875 -23.859375 C 20.476562 -23.222656 21.785156 -22.335938 22.890625 -21.203125 C 23.992188 -20.066406 24.847656 -18.726562 25.453125 -17.1875 C 26.054688 -15.65625 26.359375 -13.992188 26.359375 -12.203125 C 26.359375 -10.410156 26.054688 -8.75 25.453125 -7.21875 C 24.847656 -5.6875 23.992188 -4.34375 22.890625 -3.1875 C 21.785156 -2.039062 20.476562 -1.144531 18.96875 -0.5 C 17.457031 0.132812 15.796875 0.453125 13.984375 0.453125 C 12.171875 0.453125 10.507812 0.132812 9 -0.5 C 7.488281 -1.144531 6.175781 -2.039062 5.0625 -3.1875 C 3.945312 -4.34375 3.082031 -5.6875 2.46875 -7.21875 C 1.863281 -8.75 1.5625 -10.410156 1.5625 -12.203125 C 1.5625 -13.992188 1.863281 -15.65625 2.46875 -17.1875 C 3.082031 -18.726562 3.945312 -20.066406 5.0625 -21.203125 C 6.175781 -22.335938 7.488281 -23.222656 9 -23.859375 C 10.507812 -24.503906 12.171875 -24.828125 13.984375 -24.828125 Z M 13.984375 -2.828125 C 15.398438 -2.828125 16.660156 -3.085938 17.765625 -3.609375 C 18.867188 -4.128906 19.796875 -4.835938 20.546875 -5.734375 C 21.304688 -6.628906 21.878906 -7.632812 22.265625 -8.75 C 22.648438 -9.863281 22.84375 -11.015625 22.84375 -12.203125 C 22.84375 -13.390625 22.648438 -14.539062 22.265625 -15.65625 C 21.878906 -16.769531 21.304688 -17.773438 20.546875 -18.671875 C 19.796875 -19.566406 18.867188 -20.273438 17.765625 -20.796875 C 16.660156 -21.328125 15.398438 -21.59375 13.984375 -21.59375 C 12.566406 -21.59375 11.304688 -21.328125 10.203125 -20.796875 C 9.097656 -20.273438 8.164062 -19.566406 7.40625 -18.671875 C 6.65625 -17.773438 6.085938 -16.769531 5.703125 -15.65625 C 5.316406 -14.539062 5.125 -13.390625 5.125 -12.203125 C 5.125 -11.015625 5.316406 -9.863281 5.703125 -8.75 C 6.085938 -7.632812 6.65625 -6.628906 7.40625 -5.734375 C 8.164062 -4.835938 9.097656 -4.128906 10.203125 -3.609375 C 11.304688 -3.085938 12.566406 -2.828125 13.984375 -2.828125 Z M 13.984375 -2.828125 "/></g></g></g><g fill="#d8b9eb" fill-opacity="1"><g transform="translate(248.538572, 33.360153)"><g><path d="M 14.296875 -12.28125 C 14.296875 -12.53125 14.390625 -12.742188 14.578125 -12.921875 C 14.765625 -13.097656 14.984375 -13.1875 15.234375 -13.1875 L 24.265625 -13.1875 C 24.523438 -13.1875 24.75 -13.097656 24.9375 -12.921875 C 25.125 -12.742188 25.21875 -12.53125 25.21875 -12.28125 L 25.21875 -0.765625 C 25.21875 -0.554688 25.140625 -0.375 24.984375 -0.21875 C 24.835938 -0.0703125 24.644531 0 24.40625 0 L 23.6875 0 C 23.21875 0 22.957031 -0.242188 22.90625 -0.734375 L 22.671875 -4.015625 C 21.828125 -2.640625 20.6875 -1.554688 19.25 -0.765625 C 17.8125 0.0234375 16.054688 0.421875 13.984375 0.421875 C 12.171875 0.421875 10.507812 0.101562 9 -0.53125 C 7.488281 -1.175781 6.179688 -2.066406 5.078125 -3.203125 C 3.972656 -4.347656 3.109375 -5.6875 2.484375 -7.21875 C 1.867188 -8.75 1.5625 -10.410156 1.5625 -12.203125 C 1.5625 -13.992188 1.867188 -15.65625 2.484375 -17.1875 C 3.109375 -18.726562 3.972656 -20.070312 5.078125 -21.21875 C 6.179688 -22.375 7.488281 -23.269531 9 -23.90625 C 10.507812 -24.539062 12.171875 -24.859375 13.984375 -24.859375 C 15.796875 -24.859375 17.46875 -24.53125 19 -23.875 C 20.539062 -23.226562 21.859375 -22.328125 22.953125 -21.171875 C 23.160156 -20.960938 23.242188 -20.710938 23.203125 -20.421875 C 23.171875 -20.128906 23.023438 -19.898438 22.765625 -19.734375 L 21.453125 -18.875 C 21.035156 -18.59375 20.640625 -18.632812 20.265625 -19 C 19.515625 -19.789062 18.609375 -20.421875 17.546875 -20.890625 C 16.492188 -21.359375 15.304688 -21.59375 13.984375 -21.59375 C 12.566406 -21.59375 11.304688 -21.328125 10.203125 -20.796875 C 9.097656 -20.273438 8.164062 -19.566406 7.40625 -18.671875 C 6.65625 -17.773438 6.085938 -16.769531 5.703125 -15.65625 C 5.316406 -14.539062 5.125 -13.390625 5.125 -12.203125 C 5.125 -11.015625 5.316406 -9.863281 5.703125 -8.75 C 6.085938 -7.632812 6.65625 -6.628906 7.40625 -5.734375 C 8.164062 -4.835938 9.097656 -4.128906 10.203125 -3.609375 C 11.304688 -3.085938 12.566406 -2.828125 13.984375 -2.828125 C 15.703125 -2.828125 17.15625 -3.148438 18.34375 -3.796875 C 19.53125 -4.453125 20.457031 -5.316406 21.125 -6.390625 C 21.800781 -7.472656 22.234375 -8.679688 22.421875 -10.015625 L 15.234375 -10.015625 C 14.984375 -10.015625 14.765625 -10.101562 14.578125 -10.28125 C 14.390625 -10.46875 14.296875 -10.691406 14.296875 -10.953125 Z M 14.296875 -12.28125 "/></g></g></g><g fill="#d8b9eb" fill-opacity="1"><g transform="translate(282.391354, 33.360153)"><g><path d="M 2.4375 -23.46875 C 2.4375 -23.726562 2.53125 -23.945312 2.71875 -24.125 C 2.90625 -24.3125 3.128906 -24.40625 3.390625 -24.40625 L 5.015625 -24.40625 C 5.273438 -24.40625 5.5 -24.3125 5.6875 -24.125 C 5.875 -23.945312 5.96875 -23.726562 5.96875 -23.46875 L 5.96875 -0.9375 C 5.96875 -0.6875 5.875 -0.46875 5.6875 -0.28125 C 5.5 -0.09375 5.273438 0 5.015625 0 L 3.390625 0 C 3.128906 0 2.90625 -0.09375 2.71875 -0.28125 C 2.53125 -0.46875 2.4375 -0.6875 2.4375 -0.9375 Z M 6.140625 -32.328125 L 7.609375 -32.328125 C 7.859375 -32.328125 8.039062 -32.21875 8.15625 -32 C 8.269531 -31.78125 8.257812 -31.566406 8.125 -31.359375 L 5.6875 -27.859375 C 5.519531 -27.585938 5.265625 -27.453125 4.921875 -27.453125 L 3.796875 -27.453125 C 3.640625 -27.453125 3.515625 -27.519531 3.421875 -27.65625 C 3.328125 -27.789062 3.316406 -27.941406 3.390625 -28.109375 L 5.015625 -31.625 C 5.253906 -32.09375 5.628906 -32.328125 6.140625 -32.328125 Z M 6.140625 -32.328125 "/></g></g></g><g fill="#d8b9eb" fill-opacity="1"><g transform="translate(297.350122, 33.360153)"><g><path d="M 19.90625 0 C 19.332031 0 18.941406 -0.28125 18.734375 -0.84375 L 16.953125 -5.890625 L 6.484375 -5.890625 L 4.703125 -0.84375 C 4.492188 -0.28125 4.113281 0 3.5625 0 L 1.53125 0 C 1.320312 0 1.15625 -0.0820312 1.03125 -0.25 C 0.90625 -0.425781 0.882812 -0.625 0.96875 -0.84375 L 9.453125 -23.609375 C 9.640625 -24.140625 10.023438 -24.40625 10.609375 -24.40625 L 12.828125 -24.40625 C 13.410156 -24.40625 13.796875 -24.140625 13.984375 -23.609375 L 22.5 -0.84375 C 22.5625 -0.625 22.53125 -0.425781 22.40625 -0.25 C 22.28125 -0.0820312 22.113281 0 21.90625 0 Z M 7.640625 -9.0625 L 15.828125 -9.0625 L 11.71875 -20.6875 Z M 7.640625 -9.0625 "/></g></g></g></g></g></g><g transform="matrix(1, 0, 0, 1, 131, 231)"><g clip-path="url(#f34e297c5a)"><g fill="#ffb1d7" fill-opacity="1"><g transform="translate(1.045767, 106.591578)"><g><path d="M 64.109375 -46.640625 L 17.734375 -46.640625 L 17.734375 -4.09375 C 17.734375 -2.90625 17.320312 -1.925781 16.5 -1.15625 C 15.6875 -0.382812 14.734375 0 13.640625 0 C 12.453125 0 11.472656 -0.40625 10.703125 -1.21875 C 9.929688 -2.039062 9.546875 -3 9.546875 -4.09375 L 9.546875 -91.375 C 9.546875 -92.5625 9.953125 -93.539062 10.765625 -94.3125 C 11.585938 -95.082031 12.546875 -95.46875 13.640625 -95.46875 C 14.816406 -95.46875 15.789062 -95.054688 16.5625 -94.234375 C 17.34375 -93.421875 17.734375 -92.46875 17.734375 -91.375 L 17.734375 -54.828125 L 64.109375 -54.828125 L 64.109375 -91.375 C 64.109375 -92.5625 64.515625 -93.539062 65.328125 -94.3125 C 66.148438 -95.082031 67.109375 -95.46875 68.203125 -95.46875 C 69.378906 -95.46875 70.351562 -95.054688 71.125 -94.234375 C 71.894531 -93.421875 72.28125 -92.46875 72.28125 -91.375 L 72.28125 -4.09375 C 72.28125 -2.90625 71.867188 -1.925781 71.046875 -1.15625 C 70.234375 -0.382812 69.285156 0 68.203125 0 C 67.015625 0 66.035156 -0.40625 65.265625 -1.21875 C 64.492188 -2.039062 64.109375 -3 64.109375 -4.09375 Z M 64.109375 -46.640625 "/></g></g></g><g fill="#ffb1d7" fill-opacity="1"><g transform="translate(75.640869, 106.591578)"><g><path d="M 42.28125 -68.203125 C 45.46875 -68.109375 48.582031 -67.351562 51.625 -65.9375 C 54.664062 -64.53125 56.550781 -62.78125 57.28125 -60.6875 L 57.28125 -64.109375 C 57.28125 -65.191406 57.6875 -66.144531 58.5 -66.96875 C 59.320312 -67.789062 60.28125 -68.203125 61.375 -68.203125 C 62.46875 -68.203125 63.421875 -67.789062 64.234375 -66.96875 C 65.054688 -66.144531 65.46875 -65.191406 65.46875 -64.109375 L 65.46875 -4.09375 C 65.46875 -2.820312 65.054688 -1.820312 64.234375 -1.09375 C 63.421875 -0.363281 62.46875 0 61.375 0 C 60.007812 0 58.984375 -0.40625 58.296875 -1.21875 C 57.617188 -2.039062 57.28125 -3 57.28125 -4.09375 L 57.28125 -16.78125 C 57.101562 -16.144531 56.46875 -15.03125 55.375 -13.4375 C 54.28125 -11.84375 52.800781 -9.976562 50.9375 -7.84375 C 49.070312 -5.707031 46.570312 -3.863281 43.4375 -2.3125 C 40.300781 -0.769531 37.003906 0 33.546875 0 C 28.640625 0 24.320312 -0.929688 20.59375 -2.796875 C 16.863281 -4.660156 13.929688 -7.132812 11.796875 -10.21875 C 9.660156 -13.3125 8.066406 -16.609375 7.015625 -20.109375 C 5.972656 -23.617188 5.453125 -27.28125 5.453125 -31.09375 C 5.453125 -36.820312 6.882812 -42.484375 9.75 -48.078125 C 12.613281 -53.671875 16.953125 -58.421875 22.765625 -62.328125 C 28.585938 -66.242188 35.09375 -68.203125 42.28125 -68.203125 Z M 57.28125 -38.875 C 57.007812 -53.050781 51.375 -60.140625 40.375 -60.140625 C 34.09375 -60.140625 28.066406 -57.226562 22.296875 -51.40625 C 16.523438 -45.59375 13.640625 -38.640625 13.640625 -30.546875 C 13.640625 -24.453125 15.34375 -19.203125 18.75 -14.796875 C 22.164062 -10.390625 26.828125 -8.1875 32.734375 -8.1875 C 39.554688 -8.1875 45.351562 -11.617188 50.125 -18.484375 C 54.894531 -25.347656 57.28125 -32.144531 57.28125 -38.875 Z M 57.28125 -38.875 "/></g></g></g><g fill="#ffb1d7" fill-opacity="1"><g transform="translate(143.417273, 106.591578)"><g><path d="M 36 0 C 32 0 28.226562 -0.816406 24.6875 -2.453125 C 21.144531 -4.085938 18.828125 -5.769531 17.734375 -7.5 L 17.734375 23.1875 C 17.734375 24.457031 17.320312 25.457031 16.5 26.1875 C 15.6875 26.914062 14.734375 27.28125 13.640625 27.28125 C 12.546875 27.28125 11.585938 26.914062 10.765625 26.1875 C 9.953125 25.457031 9.546875 24.457031 9.546875 23.1875 L 9.546875 -64.109375 C 9.546875 -65.191406 9.953125 -66.144531 10.765625 -66.96875 C 11.585938 -67.789062 12.546875 -68.203125 13.640625 -68.203125 C 14.734375 -68.203125 15.6875 -67.789062 16.5 -66.96875 C 17.320312 -66.144531 17.734375 -65.191406 17.734375 -64.109375 L 17.734375 -51.421875 C 17.734375 -52.054688 18.34375 -53.257812 19.5625 -55.03125 C 20.789062 -56.800781 22.40625 -58.6875 24.40625 -60.6875 C 26.414062 -62.6875 29.007812 -64.457031 32.1875 -66 C 35.375 -67.550781 38.648438 -68.285156 42.015625 -68.203125 C 50.828125 -68.203125 57.617188 -65.109375 62.390625 -58.921875 C 67.171875 -52.734375 69.5625 -45.6875 69.5625 -37.78125 C 69.46875 -33.414062 68.738281 -29.070312 67.375 -24.75 C 66.007812 -20.4375 64.03125 -16.390625 61.4375 -12.609375 C 58.851562 -8.835938 55.351562 -5.789062 50.9375 -3.46875 C 46.53125 -1.15625 41.550781 0 36 0 Z M 17.734375 -29.328125 C 17.734375 -27.054688 18.023438 -24.828125 18.609375 -22.640625 C 19.203125 -20.460938 20.15625 -18.210938 21.46875 -15.890625 C 22.789062 -13.566406 24.769531 -11.703125 27.40625 -10.296875 C 30.050781 -8.890625 33.191406 -8.1875 36.828125 -8.1875 C 44.367188 -8.269531 50.34375 -11.359375 54.75 -17.453125 C 59.164062 -23.546875 61.375 -30.273438 61.375 -37.640625 C 61.375 -43.734375 59.664062 -49.003906 56.25 -53.453125 C 52.84375 -57.910156 48.1875 -60.097656 42.28125 -60.015625 C 35.550781 -59.921875 29.773438 -56.460938 24.953125 -49.640625 C 20.140625 -42.828125 17.734375 -36.054688 17.734375 -29.328125 Z M 17.734375 -29.328125 "/></g></g></g><g fill="#ffb1d7" fill-opacity="1"><g transform="translate(211.193677, 106.591578)"><g><path d="M 36 0 C 32 0 28.226562 -0.816406 24.6875 -2.453125 C 21.144531 -4.085938 18.828125 -5.769531 17.734375 -7.5 L 17.734375 23.1875 C 17.734375 24.457031 17.320312 25.457031 16.5 26.1875 C 15.6875 26.914062 14.734375 27.28125 13.640625 27.28125 C 12.546875 27.28125 11.585938 26.914062 10.765625 26.1875 C 9.953125 25.457031 9.546875 24.457031 9.546875 23.1875 L 9.546875 -64.109375 C 9.546875 -65.191406 9.953125 -66.144531 10.765625 -66.96875 C 11.585938 -67.789062 12.546875 -68.203125 13.640625 -68.203125 C 14.734375 -68.203125 15.6875 -67.789062 16.5 -66.96875 C 17.320312 -66.144531 17.734375 -65.191406 17.734375 -64.109375 L 17.734375 -51.421875 C 17.734375 -52.054688 18.34375 -53.257812 19.5625 -55.03125 C 20.789062 -56.800781 22.40625 -58.6875 24.40625 -60.6875 C 26.414062 -62.6875 29.007812 -64.457031 32.1875 -66 C 35.375 -67.550781 38.648438 -68.285156 42.015625 -68.203125 C 50.828125 -68.203125 57.617188 -65.109375 62.390625 -58.921875 C 67.171875 -52.734375 69.5625 -45.6875 69.5625 -37.78125 C 69.46875 -33.414062 68.738281 -29.070312 67.375 -24.75 C 66.007812 -20.4375 64.03125 -16.390625 61.4375 -12.609375 C 58.851562 -8.835938 55.351562 -5.789062 50.9375 -3.46875 C 46.53125 -1.15625 41.550781 0 36 0 Z M 17.734375 -29.328125 C 17.734375 -27.054688 18.023438 -24.828125 18.609375 -22.640625 C 19.203125 -20.460938 20.15625 -18.210938 21.46875 -15.890625 C 22.789062 -13.566406 24.769531 -11.703125 27.40625 -10.296875 C 30.050781 -8.890625 33.191406 -8.1875 36.828125 -8.1875 C 44.367188 -8.269531 50.34375 -11.359375 54.75 -17.453125 C 59.164062 -23.546875 61.375 -30.273438 61.375 -37.640625 C 61.375 -43.734375 59.664062 -49.003906 56.25 -53.453125 C 52.84375 -57.910156 48.1875 -60.097656 42.28125 -60.015625 C 35.550781 -59.921875 29.773438 -56.460938 24.953125 -49.640625 C 20.140625 -42.828125 17.734375 -36.054688 17.734375 -29.328125 Z M 17.734375 -29.328125 "/></g></g></g><g fill="#ffb1d7" fill-opacity="1"><g transform="translate(278.970081, 106.591578)"><g><path d="M 61.921875 -12 C 61.921875 -11.726562 61.921875 -11.320312 61.921875 -10.78125 C 61.921875 -8.320312 61.894531 -6.363281 61.84375 -4.90625 C 61.800781 -3.457031 61.617188 -1.300781 61.296875 1.5625 C 60.984375 4.425781 60.484375 6.8125 59.796875 8.71875 C 59.117188 10.632812 58.097656 12.816406 56.734375 15.265625 C 55.367188 17.722656 53.734375 19.703125 51.828125 21.203125 C 49.921875 22.703125 47.441406 24.039062 44.390625 25.21875 C 41.347656 26.40625 37.914062 27.09375 34.09375 27.28125 C 32.726562 27.375 31.296875 27.347656 29.796875 27.203125 C 28.296875 27.066406 26.910156 26.882812 25.640625 26.65625 C 24.367188 26.4375 23.140625 26.164062 21.953125 25.84375 C 20.773438 25.53125 19.6875 25.191406 18.6875 24.828125 C 17.6875 24.460938 16.84375 24.164062 16.15625 23.9375 C 15.476562 23.707031 14.910156 23.457031 14.453125 23.1875 L 13.78125 22.90625 C 12.863281 22.457031 12.039062 21.753906 11.3125 20.796875 C 10.59375 19.847656 10.367188 18.867188 10.640625 17.859375 C 11.003906 16.679688 11.707031 15.863281 12.75 15.40625 C 13.800781 14.957031 14.828125 14.957031 15.828125 15.40625 C 16.910156 15.957031 18.25 16.484375 19.84375 16.984375 C 21.4375 17.484375 23.484375 17.957031 25.984375 18.40625 C 28.484375 18.863281 30.9375 19.113281 33.34375 19.15625 C 35.757812 19.207031 38.238281 18.800781 40.78125 17.9375 C 43.320312 17.070312 45.546875 15.753906 47.453125 13.984375 C 49.367188 12.210938 50.914062 9.597656 52.09375 6.140625 C 53.28125 2.679688 53.828125 -1.457031 53.734375 -6.28125 L 53.59375 -20.046875 C 48.226562 -6.585938 39.863281 0.09375 28.5 0 C 22.050781 -0.09375 17.28125 -2.457031 14.1875 -7.09375 C 11.09375 -11.726562 9.546875 -17.09375 9.546875 -23.1875 L 9.546875 -64.109375 C 9.546875 -65.191406 9.953125 -66.144531 10.765625 -66.96875 C 11.585938 -67.789062 12.546875 -68.203125 13.640625 -68.203125 C 14.734375 -68.203125 15.6875 -67.789062 16.5 -66.96875 C 17.320312 -66.144531 17.734375 -65.191406 17.734375 -64.109375 L 17.734375 -23.1875 C 17.734375 -18.820312 18.640625 -15.160156 20.453125 -12.203125 C 22.273438 -9.253906 25.234375 -7.914062 29.328125 -8.1875 C 33.328125 -8.363281 36.984375 -10.132812 40.296875 -13.5 C 43.617188 -16.863281 46.1875 -20.929688 48 -25.703125 C 49.820312 -30.484375 51.207031 -35.238281 52.15625 -39.96875 C 53.113281 -44.695312 53.59375 -48.921875 53.59375 -52.640625 L 53.59375 -64.109375 C 53.59375 -65.191406 54.023438 -66.144531 54.890625 -66.96875 C 55.753906 -67.789062 56.734375 -68.203125 57.828125 -68.203125 C 58.921875 -68.203125 59.875 -67.789062 60.6875 -66.96875 C 61.507812 -66.144531 61.921875 -65.191406 61.921875 -64.109375 Z M 61.921875 -12 "/></g></g></g><g fill="#ffb1d7" fill-opacity="1"><g transform="translate(344.018974, 106.591578)"><g/></g></g><g fill="#ffb1d7" fill-opacity="1"><g transform="translate(374.292381, 106.591578)"><g><path d="M 13.640625 -93.421875 C 20.816406 -95.242188 30.179688 -95.925781 41.734375 -95.46875 C 54.734375 -94.925781 65.617188 -89.90625 74.390625 -80.40625 C 83.171875 -70.90625 87.425781 -59.425781 87.15625 -45.96875 C 86.882812 -33.238281 82.539062 -22.394531 74.125 -13.4375 C 65.71875 -4.476562 54.921875 0 41.734375 0 L 18.140625 0 C 15.140625 0 12.957031 -0.679688 11.59375 -2.046875 C 10.226562 -3.410156 9.546875 -5.59375 9.546875 -8.59375 L 9.546875 -86.875 C 9.546875 -90.519531 10.910156 -92.703125 13.640625 -93.421875 Z M 17.734375 -85.921875 L 17.734375 -8.1875 L 41.734375 -8.1875 C 52.554688 -8.1875 61.488281 -12.003906 68.53125 -19.640625 C 75.582031 -27.273438 79.0625 -36.6875 78.96875 -47.875 C 78.875 -58.601562 75.257812 -67.671875 68.125 -75.078125 C 60.988281 -82.492188 52.191406 -86.566406 41.734375 -87.296875 C 32.273438 -87.742188 24.273438 -87.285156 17.734375 -85.921875 Z M 17.734375 -85.921875 "/></g></g></g><g fill="#ffb1d7" fill-opacity="1"><g transform="translate(459.797462, 106.591578)"><g><path d="M 58.78125 -54.6875 C 59.78125 -50.050781 59.484375 -45.957031 57.890625 -42.40625 C 56.304688 -38.863281 53.851562 -36.179688 50.53125 -34.359375 C 47.207031 -32.546875 43.382812 -31.023438 39.0625 -29.796875 C 34.75 -28.566406 30.34375 -27.953125 25.84375 -27.953125 C 21.34375 -27.953125 17.140625 -28.046875 13.234375 -28.234375 C 13.867188 -20.503906 16.273438 -15.179688 20.453125 -12.265625 C 24.640625 -9.359375 29.503906 -8 35.046875 -8.1875 C 36.328125 -8.1875 37.507812 -8.253906 38.59375 -8.390625 C 39.6875 -8.523438 40.78125 -8.75 41.875 -9.0625 C 42.96875 -9.382812 43.804688 -9.585938 44.390625 -9.671875 C 44.984375 -9.765625 45.894531 -10.109375 47.125 -10.703125 C 48.351562 -11.296875 49.078125 -11.632812 49.296875 -11.71875 C 49.523438 -11.8125 50.367188 -12.269531 51.828125 -13.09375 C 53.285156 -13.914062 54.054688 -14.367188 54.140625 -14.453125 C 55.234375 -15.085938 56.28125 -15.40625 57.28125 -15.40625 C 58.1875 -15.40625 59.003906 -15.0625 59.734375 -14.375 C 60.460938 -13.695312 60.875 -12.816406 60.96875 -11.734375 C 61.0625 -10.097656 60.285156 -8.734375 58.640625 -7.640625 C 51.097656 -2.640625 43.507812 -0.09375 35.875 0 C 26.59375 0.175781 19.15625 -2.34375 13.5625 -7.5625 C 7.976562 -12.789062 5.09375 -20.632812 4.90625 -31.09375 C 4.820312 -36.914062 5.753906 -42.234375 7.703125 -47.046875 C 9.660156 -51.867188 12.273438 -55.78125 15.546875 -58.78125 C 18.816406 -61.78125 22.429688 -64.097656 26.390625 -65.734375 C 30.347656 -67.378906 34.414062 -68.203125 38.59375 -68.203125 C 44.59375 -68.203125 49.273438 -66.8125 52.640625 -64.03125 C 56.003906 -61.257812 58.050781 -58.144531 58.78125 -54.6875 Z M 13.234375 -36.421875 C 17.140625 -35.785156 21.429688 -35.671875 26.109375 -36.078125 C 30.796875 -36.484375 35.160156 -37.1875 39.203125 -38.1875 C 43.253906 -39.1875 46.4375 -40.9375 48.75 -43.4375 C 51.070312 -45.9375 51.78125 -48.960938 50.875 -52.515625 C 50.238281 -55.054688 48.78125 -56.960938 46.5 -58.234375 C 44.226562 -59.503906 41.726562 -60.097656 39 -60.015625 C 31.363281 -59.828125 25.25 -57.28125 20.65625 -52.375 C 16.070312 -47.46875 13.597656 -42.148438 13.234375 -36.421875 Z M 13.234375 -36.421875 "/></g></g></g><g fill="#ffb1d7" fill-opacity="1"><g transform="translate(519.118648, 106.591578)"><g><path d="M 9.546875 -4.09375 L 9.546875 -64.109375 C 9.546875 -65.191406 9.953125 -66.144531 10.765625 -66.96875 C 11.585938 -67.789062 12.546875 -68.203125 13.640625 -68.203125 C 14.734375 -68.203125 15.6875 -67.789062 16.5 -66.96875 C 17.320312 -66.144531 17.734375 -65.191406 17.734375 -64.109375 L 17.734375 -51.421875 C 18.179688 -54.515625 20.925781 -58.128906 25.96875 -62.265625 C 31.019531 -66.398438 36.226562 -68.378906 41.59375 -68.203125 C 54.78125 -67.742188 61.375 -60.015625 61.375 -45.015625 L 61.375 -4.09375 C 61.375 -2.820312 60.960938 -1.820312 60.140625 -1.09375 C 59.328125 -0.363281 58.375 0 57.28125 0 C 56.1875 0 55.226562 -0.363281 54.40625 -1.09375 C 53.59375 -1.820312 53.1875 -2.820312 53.1875 -4.09375 L 53.1875 -45.015625 C 53.007812 -49.648438 52.101562 -53.257812 50.46875 -55.84375 C 48.832031 -58.4375 45.875 -59.828125 41.59375 -60.015625 C 36.414062 -60.191406 31.144531 -57.117188 25.78125 -50.796875 C 20.414062 -44.484375 17.734375 -37.328125 17.734375 -29.328125 L 17.734375 -4.09375 C 17.734375 -2.820312 17.320312 -1.820312 16.5 -1.09375 C 15.6875 -0.363281 14.734375 0 13.640625 0 C 12.546875 0 11.585938 -0.363281 10.765625 -1.09375 C 9.953125 -1.820312 9.546875 -2.820312 9.546875 -4.09375 Z M 9.546875 -4.09375 "/></g></g></g><g fill="#ffb1d7" fill-opacity="1"><g transform="translate(582.80377, 106.591578)"><g><path d="M 9.546875 -22.234375 L 9.546875 -81.828125 C 9.546875 -82.921875 9.953125 -83.875 10.765625 -84.6875 C 11.585938 -85.507812 12.546875 -85.921875 13.640625 -85.921875 C 14.734375 -85.921875 15.6875 -85.507812 16.5 -84.6875 C 17.320312 -83.875 17.734375 -82.921875 17.734375 -81.828125 L 17.734375 -68.203125 L 31.640625 -68.203125 C 32.910156 -68.203125 33.953125 -67.769531 34.765625 -66.90625 C 35.585938 -66.039062 36 -65.0625 36 -63.96875 C 36 -62.875 35.585938 -61.941406 34.765625 -61.171875 C 33.953125 -60.398438 32.910156 -60.015625 31.640625 -60.015625 L 17.734375 -60.015625 L 17.734375 -27.28125 C 17.734375 -24.726562 17.753906 -22.835938 17.796875 -21.609375 C 17.835938 -20.390625 18.085938 -18.734375 18.546875 -16.640625 C 19.003906 -14.546875 19.707031 -13 20.65625 -12 C 21.613281 -11 23 -10.085938 24.8125 -9.265625 C 26.632812 -8.453125 28.910156 -8.09375 31.640625 -8.1875 C 32.734375 -8.1875 33.6875 -7.773438 34.5 -6.953125 C 35.320312 -6.140625 35.734375 -5.1875 35.734375 -4.09375 C 35.734375 -3 35.253906 -2.039062 34.296875 -1.21875 C 33.347656 -0.40625 31.960938 0 30.140625 0 C 22.960938 0 17.734375 -2.25 14.453125 -6.75 C 11.179688 -11.25 9.546875 -16.410156 9.546875 -22.234375 Z M 9.546875 -22.234375 "/></g></g></g></g></g><g clip-path="url(#6f5466a3ac)"><path fill="#ffb1d7" d="M 879.667969 181.523438 C 877.117188 179.007812 873.019531 179.042969 870.46875 181.578125 C 805.167969 246.070312 746.496094 266.558594 708.929688 237.714844 C 706.148438 235.589844 703.597656 233.265625 701.277344 230.820312 C 714.117188 217.824219 718.496094 204.898438 719.636719 195.171875 C 722.1875 173.558594 710.40625 156.164062 697.53125 151.835938 C 688.386719 148.757812 679.433594 152.398438 674.175781 161.332031 C 664.660156 177.496094 667.753906 206.269531 683.339844 229.273438 C 658.292969 248.109375 614.378906 261.320312 556.496094 266.507812 C 512.265625 270.480469 475.859375 263.886719 446.222656 250.90625 C 450.636719 248.691406 454.964844 246.351562 459.203125 243.890625 C 516.730469 210.578125 553.121094 158.75 561.648438 97.929688 C 571.058594 30.871094 544.0625 11.222656 527.125 5.492188 C 498.6875 -4.148438 461.402344 10.785156 437.199219 32.996094 C 418.257812 8.78125 391.175781 -6.222656 359.148438 2.730469 C 327.507812 11.574219 312.3125 55.527344 322.214844 109.609375 C 330.691406 155.898438 355.628906 199.992188 390.628906 230.539062 C 398.808594 237.679688 407.476562 244.066406 416.625 249.695312 C 377.351562 264.765625 333.699219 270.851562 294.003906 266.226562 C 263.980469 262.707031 246.058594 248.480469 235.367188 233.546875 C 240.871094 225.757812 244.371094 218.476562 246.339844 213.746094 C 259.882812 181.066406 256.136719 145.855469 238.144531 136.871094 C 231.550781 133.5625 224.550781 134.390625 218.9375 139.101562 C 205.363281 150.515625 201.582031 182.296875 210.320312 211.421875 C 212.660156 219.230469 215.773438 226.460938 219.574219 233.089844 C 188.617188 268.617188 139.390625 256.253906 123.015625 250.800781 C 56.378906 228.535156 23.734375 178.710938 14.519531 162.335938 C 12.847656 159.363281 9.207031 158.152344 6.113281 159.558594 L 11.722656 157.023438 L 6.113281 159.558594 L 5.777344 159.714844 L 6.078125 159.574219 C 2.613281 161.140625 1.1875 165.324219 3.035156 168.648438 C 13.058594 186.816406 47.25 239.246094 118.867188 263.183594 C 174.652344 281.824219 208.035156 264.132812 226.890625 243.996094 C 242.207031 263.585938 264.859375 275.988281 292.492188 279.207031 C 301.671875 280.277344 311.0625 280.804688 320.542969 280.804688 C 357.652344 280.804688 396.414062 272.769531 431.203125 257.855469 C 467.714844 276.269531 510.609375 283.691406 557.65625 279.46875 C 611.667969 274.613281 653.226562 263.5 681.15625 246.421875 C 684.9375 244.117188 688.351562 241.761719 691.445312 239.40625 C 694.347656 242.5 697.511719 245.402344 700.960938 248.058594 C 726.550781 267.703125 783.515625 285.941406 879.632812 190.84375 C 882.234375 188.277344 882.269531 184.09375 879.667969 181.523438 Z M 228.066406 221.238281 C 225.710938 216.363281 224.023438 211.722656 222.808594 207.675781 C 214.683594 180.574219 219.960938 155.285156 227.328125 149.09375 C 228.277344 148.300781 229.121094 147.914062 230.039062 147.914062 C 230.722656 147.914062 231.460938 148.125 232.304688 148.546875 C 242.417969 153.59375 245.550781 181.59375 234.292969 208.75 C 232.394531 213.304688 230.300781 217.457031 228.066406 221.238281 Z M 430.585938 61.347656 C 432.03125 58.796875 433.648438 56.320312 435.390625 53.945312 C 441.105469 63.6875 445.21875 73.625 447.71875 81.769531 C 455.316406 106.601562 451.992188 121.460938 447.980469 122.78125 C 438.574219 125.929688 429.65625 123.800781 424.132812 117.101562 C 414.8125 105.828125 417.222656 84.96875 430.585938 61.347656 Z M 335.050781 107.253906 C 326.558594 60.820312 338.164062 22.144531 362.664062 15.285156 C 367.90625 13.828125 372.917969 13.160156 377.703125 13.160156 C 398.964844 13.160156 415.796875 26.4375 427.878906 42.601562 C 424.503906 46.59375 421.582031 50.742188 419.207031 54.929688 C 395.992188 96.011719 407.863281 117.910156 414.039062 125.421875 C 422.988281 136.289062 437.570312 140.019531 452.078125 135.179688 C 466.203125 130.46875 469.367188 108.007812 460.167969 77.953125 C 456.496094 65.957031 451.21875 54.136719 444.535156 43.496094 C 467.328125 21.40625 502.273438 10.820312 522.90625 17.820312 C 545.875 25.609375 554.789062 52.679688 548.6875 96.085938 C 538.488281 168.824219 490.808594 210.457031 452.625 232.5625 C 445.765625 236.539062 438.644531 240.195312 431.308594 243.539062 C 371.160156 210.386719 342.859375 149.9375 335.050781 107.253906 Z M 693.203125 220.5 C 680.964844 201.433594 679.082031 178.691406 685.414062 167.910156 C 687.347656 164.640625 689.386719 163.761719 691.148438 163.761719 C 691.957031 163.761719 692.710938 163.953125 693.363281 164.164062 C 700.132812 166.433594 708.523438 177.9375 706.675781 193.605469 C 705.515625 203.316406 700.925781 212.335938 693.203125 220.5 Z M 693.203125 220.5 " fill-opacity="1" fill-rule="nonzero"/></g><g clip-path="url(#fe2e054aa1)"><path fill="#d8b9eb" d="M 383.816406 -39.175781 C 400.945312 -48.621094 419.613281 -51.695312 437.839844 -57.621094 C 434.761719 -58.71875 432.128906 -59.820312 429.273438 -60.476562 C 424.222656 -61.574219 422.464844 -64.648438 423.5625 -69.261719 C 424.882812 -74.3125 429.054688 -74.3125 432.566406 -73.214844 C 440.035156 -71.019531 447.71875 -69.699219 455.1875 -67.722656 C 470.996094 -63.769531 486.585938 -59.378906 502.617188 -56.304688 C 511.402344 -54.769531 520.40625 -51.472656 526.554688 -43.570312 C 530.507812 -38.519531 537.09375 -36.980469 542.363281 -33.6875 C 559.710938 -22.488281 574.207031 -8.652344 585.183594 8.476562 C 602.3125 35.484375 609.339844 64.25 601.214844 96.53125 C 592.210938 132.984375 571.132812 159.554688 541.046875 180.636719 C 524.359375 192.496094 506.570312 201.9375 487.246094 207.867188 C 460.015625 216.429688 432.566406 218.84375 404.238281 211.820312 C 374.816406 204.570312 348.242188 192.054688 324.527344 173.390625 C 297.957031 152.96875 281.046875 126.398438 279.070312 92.140625 C 277.972656 73.476562 284.121094 55.90625 293.34375 39.878906 C 308.496094 12.867188 330.675781 -7.554688 356.367188 -24.246094 C 364.933594 -29.953125 373.496094 -35.445312 383.816406 -39.175781 Z M 368.226562 -15.898438 C 349.121094 -4.480469 332.214844 9.574219 318.160156 26.921875 C 305.203125 42.953125 295.101562 60.957031 293.34375 82.039062 C 290.710938 111.683594 303.007812 135.621094 324.308594 155.382812 C 347.804688 177.121094 375.472656 190.957031 406.65625 199.082031 C 432.789062 205.890625 458.039062 203.253906 482.855469 195.570312 C 498.886719 190.738281 513.597656 183.050781 527.871094 173.609375 C 556.859375 154.722656 578.597656 130.570312 587.601562 96.09375 C 596.824219 61.175781 587.601562 31.3125 565.421875 4.304688 C 551.585938 -12.605469 534.019531 -24.464844 514.257812 -33.6875 C 495.371094 -42.691406 476.707031 -50.375 455.1875 -45.324219 C 452.332031 -44.667969 449.257812 -44.226562 446.183594 -43.789062 C 418.292969 -40.933594 393.261719 -30.394531 368.226562 -15.898438 Z M 368.226562 -15.898438 " fill-opacity="1" fill-rule="nonzero"/></g><g clip-path="url(#83496ee13c)"><path fill="#d8b9eb" d="M 523.171875 59.722656 C 509.613281 63.464844 506.578125 66.5 502.839844 80.058594 C 499.097656 66.5 496.0625 63.464844 482.503906 59.722656 C 496.0625 55.980469 499.097656 52.949219 502.839844 39.390625 C 506.578125 52.949219 509.613281 55.980469 523.171875 59.722656 Z M 523.171875 59.722656 " fill-opacity="1" fill-rule="nonzero"/></g></g></g></svg>