<svg xmlns="http://www.w3.org/2000/svg" viewBox="275 -10 340 230" preserveAspectRatio="xMidYMid meet">
  <defs>
    <clipPath id="icon-tooth">
      <path d="M 310.3125 0 L 576.992188 0 L 576.992188 189.039062 L 310.3125 189.039062 Z" clip-rule="nonzero"/>
    </clipPath>
    <clipPath id="icon-curve">
      <path d="M 278 94.394531 L 605 94.394531 L 605 216 L 278 216 Z" clip-rule="nonzero"/>
    </clipPath>
    <clipPath id="icon-sparkle">
      <path d="M 482.503906 39.390625 L 523.011719 39.390625 L 523.011719 79.898438 L 482.503906 79.898438 Z" clip-rule="nonzero"/>
    </clipPath>
  </defs>
  <g transform="translate(3, 0)">
    <!-- Heart/Tooth shape -->
    <g clip-path="url(#icon-tooth)">
      <path fill="#ffb1d7" fill-opacity="1" fill-rule="nonzero" d="M 879.667969 181.523438 C 877.117188 179.007812 873.019531 179.042969 870.46875 181.578125 C 805.167969 246.070312 746.496094 266.558594 708.929688 237.714844 C 706.148438 235.589844 703.597656 233.265625 701.277344 230.820312 C 714.117188 217.824219 718.496094 204.898438 719.636719 195.171875 C 722.1875 173.558594 710.40625 156.164062 697.53125 151.835938 C 688.386719 148.757812 679.433594 152.398438 674.175781 161.332031 C 664.660156 177.496094 667.753906 206.269531 683.339844 229.273438 C 658.292969 248.109375 614.378906 261.320312 556.496094 266.507812 C 512.265625 270.480469 475.859375 263.886719 446.222656 250.90625 C 450.636719 248.691406 454.964844 246.351562 459.203125 243.890625 C 516.730469 210.578125 553.121094 158.75 561.648438 97.929688 C 571.058594 30.871094 544.0625 11.222656 527.125 5.492188 C 498.6875 -4.148438 461.402344 10.785156 437.199219 32.996094 C 418.257812 8.78125 391.175781 -6.222656 359.148438 2.730469 C 327.507812 11.574219 312.3125 55.527344 322.214844 109.609375 C 330.691406 155.898438 355.628906 199.992188 390.628906 230.539062 C 398.808594 237.679688 407.476562 244.066406 416.625 249.695312 C 377.351562 264.765625 333.699219 270.851562 294.003906 266.226562 C 263.980469 262.707031 246.058594 248.480469 235.367188 233.546875 C 240.871094 225.757812 244.371094 218.476562 246.339844 213.746094 C 259.882812 181.066406 256.136719 145.855469 238.144531 136.871094 C 231.550781 133.5625 224.550781 134.390625 218.9375 139.101562 C 205.363281 150.515625 201.582031 182.296875 210.320312 211.421875 C 212.660156 219.230469 215.773438 226.460938 219.574219 233.089844 C 188.617188 268.617188 139.390625 256.253906 123.015625 250.800781 C 56.378906 228.535156 23.734375 178.710938 14.519531 162.335938 C 12.847656 159.363281 9.207031 158.152344 6.113281 159.558594 L 11.722656 157.023438 L 6.113281 159.558594 L 5.777344 159.714844 L 6.078125 159.574219 C 2.613281 161.140625 1.1875 165.324219 3.035156 168.648438 C 13.058594 186.816406 47.25 239.246094 118.867188 263.183594 C 174.652344 281.824219 208.035156 264.132812 226.890625 243.996094 C 242.207031 263.585938 264.859375 275.988281 292.492188 279.207031 C 301.671875 280.277344 311.0625 280.804688 320.542969 280.804688 C 357.652344 280.804688 396.414062 272.769531 431.203125 257.855469 C 467.714844 276.269531 510.609375 283.691406 557.65625 279.46875 C 611.667969 274.613281 653.226562 263.5 681.15625 246.421875 C 684.9375 244.117188 688.351562 241.761719 691.445312 239.40625 C 694.347656 242.5 697.511719 245.402344 700.960938 248.058594 C 726.550781 267.703125 783.515625 285.941406 879.632812 190.84375 C 882.234375 188.277344 882.269531 184.09375 879.667969 181.523438 Z M 228.066406 221.238281 C 225.710938 216.363281 224.023438 211.722656 222.808594 207.675781 C 214.683594 180.574219 219.960938 155.285156 227.328125 149.09375 C 228.277344 148.300781 229.121094 147.914062 230.039062 147.914062 C 230.722656 147.914062 231.460938 148.125 232.304688 148.546875 C 242.417969 153.59375 245.550781 181.59375 234.292969 208.75 C 232.394531 213.304688 230.300781 217.457031 228.066406 221.238281 Z M 430.585938 61.347656 C 432.03125 58.796875 433.648438 56.320312 435.390625 53.945312 C 441.105469 63.6875 445.21875 73.625 447.71875 81.769531 C 455.316406 106.601562 451.992188 121.460938 447.980469 122.78125 C 438.574219 125.929688 429.65625 123.800781 424.132812 117.101562 C 414.8125 105.828125 417.222656 84.96875 430.585938 61.347656 Z M 335.050781 107.253906 C 326.558594 60.820312 338.164062 22.144531 362.664062 15.285156 C 367.90625 13.828125 372.917969 13.160156 377.703125 13.160156 C 398.964844 13.160156 415.796875 26.4375 427.878906 42.601562 C 424.503906 46.59375 421.582031 50.742188 419.207031 54.929688 C 395.992188 96.011719 407.863281 117.910156 414.039062 125.421875 C 422.988281 136.289062 437.570312 140.019531 452.078125 135.179688 C 466.203125 130.46875 469.367188 108.007812 460.167969 77.953125 C 456.496094 65.957031 451.21875 54.136719 444.535156 43.496094 C 467.328125 21.40625 502.273438 10.820312 522.90625 17.820312 C 545.875 25.609375 554.789062 52.679688 548.6875 96.085938 C 538.488281 168.824219 490.808594 210.457031 452.625 232.5625 C 445.765625 236.539062 438.644531 240.195312 431.308594 243.539062 C 371.160156 210.386719 342.859375 149.9375 335.050781 107.253906 Z M 693.203125 220.5 C 680.964844 201.433594 679.082031 178.691406 685.414062 167.910156 C 687.347656 164.640625 689.386719 163.761719 691.148438 163.761719 C 691.957031 163.761719 692.710938 163.953125 693.363281 164.164062 C 700.132812 166.433594 708.523438 177.9375 706.675781 193.605469 C 705.515625 203.316406 700.925781 212.335938 693.203125 220.5 Z"/>
    </g>
    <!-- Decorative outer curve -->
    <g clip-path="url(#icon-curve)">
      <path fill="#d8b9eb" fill-opacity="1" fill-rule="nonzero" d="M 383.816406 -39.175781 C 400.945312 -48.621094 419.613281 -51.695312 437.839844 -57.621094 C 434.761719 -58.71875 432.128906 -59.820312 429.273438 -60.476562 C 424.222656 -61.574219 422.464844 -64.648438 423.5625 -69.261719 C 424.882812 -74.3125 429.054688 -74.3125 432.566406 -73.214844 C 440.035156 -71.019531 447.71875 -69.699219 455.1875 -67.722656 C 470.996094 -63.769531 486.585938 -59.378906 502.617188 -56.304688 C 511.402344 -54.769531 520.40625 -51.472656 526.554688 -43.570312 C 530.507812 -38.519531 537.09375 -36.980469 542.363281 -33.6875 C 559.710938 -22.488281 574.207031 -8.652344 585.183594 8.476562 C 602.3125 35.484375 609.339844 64.25 601.214844 96.53125 C 592.210938 132.984375 571.132812 159.554688 541.046875 180.636719 C 524.359375 192.496094 506.570312 201.9375 487.246094 207.867188 C 460.015625 216.429688 432.566406 218.84375 404.238281 211.820312 C 374.816406 204.570312 348.242188 192.054688 324.527344 173.390625 C 297.957031 152.96875 281.046875 126.398438 279.070312 92.140625 C 277.972656 73.476562 284.121094 55.90625 293.34375 39.878906 C 308.496094 12.867188 330.675781 -7.554688 356.367188 -24.246094 C 364.933594 -29.953125 373.496094 -35.445312 383.816406 -39.175781 Z M 368.226562 -15.898438 C 349.121094 -4.480469 332.214844 9.574219 318.160156 26.921875 C 305.203125 42.953125 295.101562 60.957031 293.34375 82.039062 C 290.710938 111.683594 303.007812 135.621094 324.308594 155.382812 C 347.804688 177.121094 375.472656 190.957031 406.65625 199.082031 C 432.789062 205.890625 458.039062 203.253906 482.855469 195.570312 C 498.886719 190.738281 513.597656 183.050781 527.871094 173.609375 C 556.859375 154.722656 578.597656 130.570312 587.601562 96.09375 C 596.824219 61.175781 587.601562 31.3125 565.421875 4.304688 C 551.585938 -12.605469 534.019531 -24.464844 514.257812 -33.6875 C 495.371094 -42.691406 476.707031 -50.375 455.1875 -45.324219 C 452.332031 -44.667969 449.257812 -44.226562 446.183594 -43.789062 C 418.292969 -40.933594 393.261719 -30.394531 368.226562 -15.898438 Z"/>
    </g>
    <!-- Sparkle star -->
    <g clip-path="url(#icon-sparkle)">
      <path fill="#d8b9eb" fill-opacity="1" fill-rule="nonzero" d="M 523.171875 59.722656 C 509.613281 63.464844 506.578125 66.5 502.839844 80.058594 C 499.097656 66.5 496.0625 63.464844 482.503906 59.722656 C 496.0625 55.980469 499.097656 52.949219 502.839844 39.390625 C 506.578125 52.949219 509.613281 55.980469 523.171875 59.722656 Z"/>
    </g>
  </g>
</svg>
